HIERARCHY
ROOT Hips
{
	OFFSET 0.000000 0.000000 0.000000
	CHANNELS 6 Xposition Yposition Zposition Xrotation Yrotation Zrotation
	JOINT LeftUpLeg_virtual
	{
		OFFSET 0.000000 0.000000 0.000000
		CHANNELS 3 Xrotation Yrotation Zrotation
		JOINT LeftUpLeg
		{
			OFFSET 15.427100 -6.655098 0.678600
			CHANNELS 3 Xrotation Yrotation Zrotation
			JOINT LeftLeg
			{
				OFFSET 4.081073 -39.591068 13.024000
				CHANNELS 3 Xrotation Yrotation Zrotation
				JOINT LeftFoot
				{
					OFFSET -4.081074 -37.707932 -15.979700
					CHANNELS 3 Xrotation Yrotation Zrotation
					JOINT LeftToeBase
					{
						OFFSET 5.346399 -15.068900 20.645000
						CHANNELS 3 Xrotation Yrotation Zrotation
						JOINT LeftToe_End
						{
							OFFSET 2.754700 0.931300 11.300900
							CHANNELS 3 Xrotation Yrotation Zrotation
							End Site
							{
								OFFSET 0 0 0
							}
						}
					}
				}
			}
		}
	}
	JOINT RightUpLeg_virtual
	{
		OFFSET 0.000000 0.000000 0.000000
		CHANNELS 3 Xrotation Yrotation Zrotation
		JOINT RightUpLeg
		{
			OFFSET -15.569500 -6.655098 0.678600
			CHANNELS 3 Xrotation Yrotation Zrotation
			JOINT RightLeg
			{
				OFFSET -4.081825 -39.591045 13.023800
				CHANNELS 3 Xrotation Yrotation Zrotation
				JOINT RightFoot
				{
					OFFSET 4.081824 -37.707954 -15.979600
					CHANNELS 3 Xrotation Yrotation Zrotation
					JOINT RightToeBase
					{
						OFFSET -5.346400 -15.068900 20.645000
						CHANNELS 3 Xrotation Yrotation Zrotation
						JOINT RightToe_End
						{
							OFFSET -2.754700 0.931300 11.300900
							CHANNELS 3 Xrotation Yrotation Zrotation
							End Site
							{
								OFFSET 0 0 0
							}
						}
					}
				}
			}
		}
	}
	JOINT Spine_virtual
	{
		OFFSET 0.000000 0.000000 0.000000
		CHANNELS 3 Xrotation Yrotation Zrotation
		JOINT Spine
		{
			OFFSET -0.279200 12.230698 -2.892100
			CHANNELS 3 Xrotation Yrotation Zrotation
			JOINT Spine1
			{
				OFFSET -0.232667 10.192268 -1.242267
				CHANNELS 3 Xrotation Yrotation Zrotation
				JOINT Spine1_split
				{
					OFFSET -0.232667 10.192268 -1.242267
					CHANNELS 3 Xrotation Yrotation Zrotation
					JOINT Spine2
					{
						OFFSET -0.232667 10.192268 -1.242267
						CHANNELS 3 Xrotation Yrotation Zrotation
						JOINT Neck_virtual
						{
							OFFSET 0.000000 0.000000 0.000000
							CHANNELS 3 Xrotation Yrotation Zrotation
							JOINT Neck
							{
								OFFSET -0.418800 17.814194 8.416900
								CHANNELS 3 Xrotation Yrotation Zrotation
								JOINT Head
								{
									OFFSET 0.000000 7.031097 3.806800
									CHANNELS 3 Xrotation Yrotation Zrotation
									JOINT HeadTop_End
									{
										OFFSET 0.000000 24.646606 12.978600
										CHANNELS 3 Xrotation Yrotation Zrotation
										End Site
										{
											OFFSET 0 0 0
										}
									}
								}
							}
						}
						JOINT LeftShoulder_virtual
						{
							OFFSET 0.000000 0.000000 0.000000
							CHANNELS 3 Xrotation Yrotation Zrotation
							JOINT LeftShoulder
							{
								OFFSET 8.476499 7.247704 -3.868750
								CHANNELS 3 Xrotation Yrotation Zrotation
								JOINT LeftShoulder_split
								{
									OFFSET 8.476499 7.247704 -3.868750
									CHANNELS 3 Xrotation Yrotation Zrotation
									JOINT LeftArm
									{
										OFFSET 9.308998 -2.777710 0.208600
										CHANNELS 3 Xrotation Yrotation Zrotation
										JOINT LeftForeArm
										{
											OFFSET 29.972298 0.000000 0.000000
											CHANNELS 3 Xrotation Yrotation Zrotation
											JOINT LeftHand
											{
												OFFSET 26.026505 0.000000 0.000000
												CHANNELS 3 Xrotation Yrotation Zrotation
												End Site
												{
													OFFSET 0 0 0
												}
											}
										}
									}
								}
							}
						}
						JOINT RightShoulder_virtual
						{
							OFFSET 0.000000 0.000000 0.000000
							CHANNELS 3 Xrotation Yrotation Zrotation
							JOINT RightShoulder
							{
								OFFSET -7.570500 7.247704 -3.868750
								CHANNELS 3 Xrotation Yrotation Zrotation
								JOINT RightShoulder_split
								{
									OFFSET -7.570500 7.247704 -3.868750
									CHANNELS 3 Xrotation Yrotation Zrotation
									JOINT RightArm
									{
										OFFSET -9.308998 -2.777710 0.208500
										CHANNELS 3 Xrotation Yrotation Zrotation
										JOINT RightForeArm
										{
											OFFSET -29.972300 0.000000 0.000000
											CHANNELS 3 Xrotation Yrotation Zrotation
											JOINT RightHand
											{
												OFFSET -26.026505 0.000000 0.000000
												CHANNELS 3 Xrotation Yrotation Zrotation
												End Site
												{
													OFFSET 0 0 0
												}
											}
										}
									}
								}
							}
						}
					}
				}
			}
		}
	}
}
MOTION
Frames: 10
Frame Time: 0.03333333
-1.537903 40.448708 70.763145 0.000000 0.000000 0.000000 18.831141 -21.737844 -7.255297 2.001507 7.086178 0.003344 89.940457 -12.139796 -1.375410 25.162127 -4.528588 -25.085280 -0.421555 0.179492 -0.052616 0.000000 0.000000 0.000000 18.831141 -21.737844 -7.255297 1.101179 12.356827 -6.233842 64.595906 10.563402 -14.632693 49.722059 8.368579 21.735667 11.632407 -0.969974 -1.692168 0.000000 0.000000 0.000000 18.831141 -21.737844 -7.255297 5.496491 -1.309062 2.379028 -5.171067 1.550854 1.959064 0.000000 0.000000 0.000000 0.000000 0.000000 0.000000 -5.193917 1.508887 1.857958 -62.248732 1.353929 14.158360 12.349462 13.729148 -17.996363 0.000000 0.000000 0.000000 -5.193917 1.508887 1.857958 -18.582085 2.045156 -16.773563 0.000000 0.000000 0.000000 3.520081 11.137060 -50.723075 73.636802 -20.517145 30.047051 0.000000 0.000000 0.000000 -5.193917 1.508887 1.857958 -18.392409 3.617958 16.265223 0.000000 0.000000 0.000000 6.546131 -5.489173 58.074032 -12.534802 31.895016 15.129562 0.000000 0.000000 0.000000 
-1.123997 40.519241 72.991364 0.000000 0.000000 0.000000 20.709031 -22.399583 -7.307926 2.843880 6.046318 -1.028919 87.247832 -12.264139 -1.159460 25.187538 -4.719719 -25.896821 -0.676335 0.771630 -0.079995 0.000000 0.000000 0.000000 20.709031 -22.399583 -7.307926 0.740802 11.290115 -5.991105 63.749748 10.548204 -14.415312 47.532215 7.773201 21.172555 13.783802 -1.925722 -2.028554 0.000000 0.000000 0.000000 20.709031 -22.399583 -7.307926 5.386879 -1.303203 2.583940 -5.387903 1.463343 2.228127 0.000000 0.000000 0.000000 0.000000 0.000000 0.000000 -5.408686 1.438962 2.129569 -64.248700 1.118116 14.686597 13.384905 14.022325 -18.292368 0.000000 0.000000 0.000000 -5.408686 1.438962 2.129569 -18.927009 2.423269 -16.209301 0.000000 0.000000 0.000000 6.399252 13.475591 -49.024045 73.253287 -19.968939 30.111370 0.000000 0.000000 0.000000 -5.408686 1.438962 2.129569 -18.645067 3.158384 16.723944 0.000000 0.000000 0.000000 7.365362 -4.012501 58.411668 -23.798083 35.944209 23.539286 0.000000 0.000000 0.000000 
-0.901230 40.480415 75.238297 0.000000 0.000000 0.000000 22.833922 -22.739756 -7.223827 3.362403 4.155302 -1.717138 84.491605 -11.446274 -1.021924 25.685027 -4.841963 -26.131218 -0.743905 0.262950 -0.424647 0.000000 0.000000 0.000000 22.833922 -22.739756 -7.223827 0.959539 10.266718 -5.694924 62.510567 11.006075 -14.003987 47.169536 7.873054 21.399994 13.689332 -3.426833 -2.677839 0.000000 0.000000 0.000000 22.833922 -22.739756 -7.223827 5.302893 -1.195859 2.693192 -5.579764 1.386648 2.467673 0.000000 0.000000 0.000000 0.000000 0.000000 0.000000 -5.597968 1.382293 2.371569 -66.531746 0.851079 14.977239 14.412287 14.182149 -18.577611 0.000000 0.000000 0.000000 -5.597968 1.382293 2.371569 -19.324741 2.867704 -15.372842 0.000000 0.000000 0.000000 11.222558 12.997945 -47.136092 70.495858 -22.628968 28.974455 0.000000 0.000000 0.000000 -5.597968 1.382293 2.371569 -18.954774 2.720319 17.238103 0.000000 0.000000 0.000000 8.007427 -1.543118 58.368993 -23.446776 42.276422 23.971131 0.000000 0.000000 0.000000 
-0.768940 40.314102 77.628609 0.000000 0.000000 0.000000 25.171347 -22.804245 -7.056183 3.838512 1.614398 -2.386539 81.464691 -9.909548 -0.782007 26.080813 -4.946623 -26.829687 -0.383178 -0.711380 -0.457325 0.000000 0.000000 0.000000 25.171347 -22.804245 -7.056183 1.534456 9.554506 -5.838409 60.937821 10.568442 -13.527131 48.427827 8.234869 21.491339 12.048546 -3.618511 -4.065640 0.000000 0.000000 0.000000 25.171347 -22.804245 -7.056183 5.256044 -1.036560 2.745752 -5.734332 1.325685 2.674344 0.000000 0.000000 0.000000 0.000000 0.000000 0.000000 -5.749945 1.343238 2.579083 -68.979761 0.603834 15.062027 15.389057 14.174245 -18.750905 0.000000 0.000000 0.000000 -5.749945 1.343238 2.579083 -19.699147 3.311102 -14.383120 0.000000 0.000000 0.000000 15.604023 11.619169 -44.492412 63.822053 -28.749168 24.713762 0.000000 0.000000 0.000000 -5.749945 1.343238 2.579083 -19.283608 2.435055 17.604326 0.000000 0.000000 0.000000 8.641505 1.247377 57.688953 -13.643503 49.929250 16.025000 0.000000 0.000000 0.000000 
-0.701321 39.998192 80.184601 0.000000 0.000000 0.000000 27.749665 -22.548357 -6.917472 4.173007 -0.623330 -3.559849 77.933223 -9.214787 -0.294458 26.805991 -5.266368 -27.868905 -0.696335 -0.246699 -0.517356 0.000000 0.000000 0.000000 27.749665 -22.548357 -6.917472 2.080338 8.939757 -5.731437 59.923490 10.252327 -13.272954 48.433496 8.266684 21.383162 11.110054 -3.597528 -4.417825 0.000000 0.000000 0.000000 27.749665 -22.548357 -6.917472 5.245160 -0.881325 2.827996 -5.845206 1.287935 2.843427 0.000000 0.000000 0.000000 0.000000 0.000000 0.000000 -5.858593 1.328613 2.746265 -71.397757 0.420251 14.922860 16.278033 14.022168 -18.736363 0.000000 0.000000 0.000000 -5.858593 1.328613 2.746265 -19.982828 3.650324 -13.444832 0.000000 0.000000 0.000000 18.325695 10.812079 -42.020690 54.988518 -34.777752 18.159123 0.000000 0.000000 0.000000 -5.858593 1.328613 2.746265 -19.525829 2.412061 17.411494 0.000000 0.000000 0.000000 9.771828 3.552151 56.940415 3.947457 55.524869 0.152050 0.000000 0.000000 0.000000 
-0.712643 39.498566 82.835464 0.000000 0.000000 0.000000 30.615937 -21.918420 -6.726918 4.340803 -3.013776 -4.954233 74.350605 -8.476706 0.433358 26.857586 -5.525061 -29.507462 -0.597126 0.309112 -0.391554 0.000000 0.000000 0.000000 30.615937 -21.918420 -6.726918 2.917726 8.184505 -5.382079 58.929472 11.205194 -12.978369 48.570346 8.531844 21.712181 9.363529 -4.583542 -3.818798 0.000000 0.000000 0.000000 30.615937 -21.918420 -6.726918 5.261744 -0.683821 2.849381 -5.912645 1.281301 2.969704 0.000000 0.000000 0.000000 0.000000 0.000000 0.000000 -5.924813 1.345335 2.866670 -73.590357 0.341946 14.664744 17.075731 13.759631 -18.622815 0.000000 0.000000 0.000000 -5.924813 1.345335 2.866670 -20.144861 3.830061 -12.686438 0.000000 0.000000 0.000000 19.494775 10.754159 -40.274685 47.363124 -39.125885 12.447272 0.000000 0.000000 0.000000 -5.924813 1.345335 2.866670 -19.646722 2.493592 16.653176 0.000000 0.000000 0.000000 11.247103 5.054230 56.197888 21.701536 57.218011 -16.941511 0.000000 0.000000 0.000000 
-0.880027 38.773064 85.675079 0.000000 0.000000 0.000000 33.829483 -20.827082 -6.439934 4.427154 -5.453003 -6.386077 70.395515 -7.604042 1.426619 27.010478 -5.809880 -31.158958 -0.577991 0.629278 -0.288480 0.000000 0.000000 0.000000 33.829483 -20.827082 -6.439934 3.986340 7.495262 -5.116754 57.798440 11.992281 -12.671401 48.821034 8.975243 22.459942 7.178682 -5.421548 -3.388980 0.000000 0.000000 0.000000 33.829483 -20.827082 -6.439934 5.279863 -0.446132 2.806701 -5.947397 1.302982 3.055231 0.000000 0.000000 0.000000 0.000000 0.000000 0.000000 -5.958994 1.389026 2.943502 -75.393916 0.333435 14.364695 17.775806 13.474838 -18.570748 0.000000 0.000000 0.000000 -5.958994 1.389026 2.943502 -20.171719 3.805436 -12.171243 0.000000 0.000000 0.000000 20.086297 11.120575 -39.153530 43.022368 -42.696271 9.867674 0.000000 0.000000 0.000000 -5.958994 1.389026 2.943502 -19.629147 2.652911 15.539280 0.000000 0.000000 0.000000 13.365493 4.941605 55.299308 33.181954 57.779015 -28.838445 0.000000 0.000000 0.000000 
-1.146170 37.792953 88.713928 0.000000 0.000000 0.000000 37.455142 -19.230630 -6.075945 4.393243 -8.104588 -7.788047 66.129181 -6.441890 2.800239 27.213666 -6.189058 -33.278133 -0.746884 0.731321 0.174191 0.000000 0.000000 0.000000 37.455142 -19.230630 -6.075945 4.834806 6.697196 -5.291292 56.545070 11.443353 -12.222228 49.129783 8.998559 22.185447 5.386785 -4.568721 -3.006317 0.000000 0.000000 0.000000 37.455142 -19.230630 -6.075945 5.290859 -0.209317 2.752189 -5.953205 1.340451 3.108460 0.000000 0.000000 0.000000 0.000000 0.000000 0.000000 -5.964460 1.445872 2.988520 -76.665021 0.334716 14.146023 18.334178 13.277333 -18.752887 0.000000 0.000000 0.000000 -5.964460 1.445872 2.988520 -20.054460 3.629516 -11.796364 0.000000 0.000000 0.000000 20.841422 11.038361 -38.363390 42.921298 -46.109487 11.242473 0.000000 0.000000 0.000000 -5.964460 1.445872 2.988520 -19.495088 2.788996 14.267715 0.000000 0.000000 0.000000 16.096531 2.797557 53.948973 34.870571 60.658227 -31.945993 0.000000 0.000000 0.000000 
-1.572567 36.492378 91.971748 0.000000 0.000000 0.000000 41.488799 -17.322432 -5.550976 4.296973 -10.578200 -8.978961 61.844487 -5.170575 4.295317 26.731146 -6.205175 -34.759109 -0.688744 0.529372 0.488915 0.000000 0.000000 0.000000 41.488799 -17.322432 -5.550976 5.757327 5.913498 -5.436974 55.228899 11.275002 -11.885097 49.212763 9.426971 23.080463 3.336298 -4.359708 -2.927070 0.000000 0.000000 0.000000 41.488799 -17.322432 -5.550976 5.284201 0.068929 2.588365 -5.937169 1.375675 3.140232 0.000000 0.000000 0.000000 0.000000 0.000000 0.000000 -5.947429 1.496904 3.016118 -77.369562 0.318742 14.143543 18.707724 13.205702 -19.280243 0.000000 0.000000 0.000000 -5.947429 1.496904 3.016118 -19.807631 3.375729 -11.345075 0.000000 0.000000 0.000000 22.560940 10.331096 -37.622099 46.219053 -49.776933 15.947681 0.000000 0.000000 0.000000 -5.947429 1.496904 3.016118 -19.250053 3.061573 13.007174 0.000000 0.000000 0.000000 19.334167 -0.819407 52.338015 29.277770 64.736820 -27.543083 0.000000 0.000000 0.000000 
-2.077455 34.791412 95.557922 0.000000 0.000000 0.000000 45.892161 -15.286450 -4.906693 4.193178 -12.564675 -10.360294 57.856647 -4.253791 6.051242 24.417791 -5.451943 -35.017670 0.051564 0.688399 -0.149099 0.000000 0.000000 0.000000 45.892161 -15.286450 -4.906693 6.813407 4.912246 -5.589220 53.478769 11.828687 -11.599688 49.781513 10.044628 24.045502 0.763483 -4.637924 -2.390690 0.000000 0.000000 0.000000 45.892161 -15.286450 -4.906693 5.246661 0.373027 2.313769 -5.920072 1.395553 3.162205 0.000000 0.000000 0.000000 0.000000 0.000000 0.000000 -5.928507 1.528367 3.039176 -77.537059 0.327736 14.358168 18.804882 13.372523 -20.091596 0.000000 0.000000 0.000000 -5.928507 1.528367 3.039176 -19.468310 3.099386 -10.702305 0.000000 0.000000 0.000000 25.547312 9.078771 -37.003055 49.928574 -53.657256 21.551345 0.000000 0.000000 0.000000 -5.928507 1.528367 3.039176 -18.943311 3.374950 11.748491 0.000000 0.000000 0.000000 22.867159 -4.426794 50.803811 22.944513 66.630380 -21.155848 0.000000 0.000000 0.000000 
